<svg xmlns="http://www.w3.org/2000/svg" xmlns:xlink="http://www.w3.org/1999/xlink" id="Layer_1" data-name="Layer 1" version="1.1" viewBox="146.62 129.29 167.75 209.66"><defs id="defs8"><linearGradient id="linear-gradient" x1="175.48" x2="292.26" y1="132.42" y2="166.86" gradientUnits="userSpaceOnUse"><stop id="stop1" offset="0" stop-color="#4cbea0"/><stop id="stop2" offset=".5" stop-color="#0099d8"/><stop id="stop3" offset="1" stop-color="#8d54a2"/></linearGradient><linearGradient id="linear-gradient-2" x1="164.44" x2="281.43" y1="169.42" y2="203.92" gradientUnits="userSpaceOnUse"><stop id="stop4" offset="0" stop-color="#4cbea0"/><stop id="stop5" offset=".54" stop-color="#0099d8"/><stop id="stop6" offset="1" stop-color="#8d54a2"/></linearGradient><linearGradient id="linear-gradient-3" x1="199.33" x2="275.84" y1="148.74" y2="148.74" gradientUnits="userSpaceOnUse"><stop id="stop7" offset="0" stop-color="#4dbca3"/><stop id="stop8" offset="1" stop-color="#00acff"/></linearGradient><linearGradient xlink:href="#linear-gradient-3" id="linear-gradient-4" x1="199.33" x2="275.84" y1="196" y2="196"/><linearGradient xlink:href="#linear-gradient-3" id="linearGradient2" x1="199.33" x2="275.84" y1="148.74" y2="148.74" gradientUnits="userSpaceOnUse"/><style id="style1">.cls-5{stroke-width:0;fill:#939598}</style></defs><g id="text9" aria-label="ELECTION2024" style="font-style:italic;font-weight:700;font-size:36px;font-family:OpenSans-ExtraboldItalic,&quot;Open Sans&quot;;fill:#00acff" transform="translate(146.08 304.6)"><path id="path33" d="m.932 0 5.431-25.7h14.38l-.95 4.466h-9l-1.178 5.642H18l-.967 4.465H8.648L7.242-4.5h9L15.293 0Zm19.511 0 5.432-25.7h5.379l-4.5 21.2h9l-.95 4.5Zm18.65 0 5.432-25.7h14.38l-.95 4.466h-9l-1.178 5.642h8.385l-.967 4.465h-8.384L45.404-4.5h9L53.455 0Zm30.165.352q-3.112 0-5.203-1.23-2.092-1.249-3.164-3.499-1.055-2.268-1.055-5.344 0-2.267.51-4.588.527-2.32 1.582-4.43 1.054-2.126 2.69-3.779 1.634-1.652 3.866-2.619 2.233-.967 5.098-.967 2.443 0 4.148.458 1.706.457 3.41 1.388l-2.074 4.395q-1.248-.721-2.566-1.213-1.3-.492-2.918-.492-1.74 0-3.094.703-1.353.703-2.338 1.916-.966 1.195-1.6 2.707-.632 1.494-.948 3.111-.3 1.617-.3 3.129 0 2.918 1.214 4.36 1.213 1.423 3.832 1.423 1.459 0 2.953-.369 1.494-.387 2.988-.984v4.57q-1.072.422-2.883.897-1.793.457-4.148.457ZM84.375 0l4.465-21.164h-6.188l.967-4.535h17.754l-.967 4.535h-6.205L89.736 0Zm15.328 0 5.467-25.7h5.379L105.064 0Zm22.324.352q-3.129 0-5.256-1.213-2.109-1.213-3.199-3.41-1.09-2.215-1.09-5.168 0-2.004.352-4.008.37-2.004 1.09-3.867.738-1.864 1.846-3.463 1.125-1.6 2.636-2.795 1.512-1.196 3.428-1.864 1.916-.668 4.254-.668 4.676 0 7.031 2.637 2.373 2.62 2.373 6.979 0 2.092-.351 4.148-.334 2.057-1.055 3.938-.703 1.88-1.81 3.48-1.09 1.582-2.585 2.777-1.494 1.178-3.41 1.846-1.898.65-4.254.65zm.387-4.57q1.055 0 2.022-.387.966-.387 1.81-1.108.844-.738 1.53-1.793.703-1.072 1.195-2.408.492-1.354.756-2.97.28-1.618.28-3.464 0-2.373-1.107-3.797-1.09-1.423-3.252-1.423-1.107 0-2.127.44-1.001.439-1.863 1.247-.844.809-1.53 1.916-.685 1.108-1.177 2.461-.492 1.354-.756 2.883-.246 1.53-.246 3.182 0 1.705.528 2.882.527 1.16 1.529 1.758 1.002.58 2.408.58zM137.531 0l5.432-25.7h6.275l5.977 18.932h.14q.124-.755.317-1.95.193-1.214.422-2.497.246-1.3.457-2.32l2.584-12.164h4.816L158.52 0h-6.012l-6.258-19.441h-.176q-.017.21-.14 1.02-.106.808-.282 1.95-.158 1.125-.351 2.303-.194 1.16-.387 2.074L142.365 0Z"/><path id="path34" d="m42.229 34 .756-3.744 8.384-7.453q1.565-1.389 2.637-2.479t1.705-1.969q.65-.896.932-1.67.299-.773.299-1.511 0-1.319-.721-2.004-.72-.703-1.934-.703-.861 0-1.687.299-.809.28-1.705.879-.897.58-2.004 1.494l-2.567-3.569q1.829-1.547 3.938-2.584 2.127-1.054 4.887-1.054 2.53 0 4.13.896 1.6.897 2.356 2.338.756 1.424.756 3.041 0 2.285-.985 4.148-.984 1.846-2.689 3.534-1.705 1.687-3.885 3.463l-4.728 3.902v.176h9.984l-.95 4.57Zm28.933.352q-3.638 0-5.361-2.233-1.723-2.232-1.723-6.328 0-2.355.317-4.57.334-2.233.966-4.237.65-2.004 1.6-3.656.967-1.67 2.215-2.883 1.266-1.213 2.83-1.88 1.564-.669 3.41-.669 1.653 0 2.953.493 1.301.474 2.198 1.494.914 1.02 1.388 2.601.475 1.565.475 3.727 0 2.285-.281 4.518-.282 2.214-.88 4.253-.58 2.022-1.493 3.727-.897 1.705-2.163 2.97-1.248 1.266-2.865 1.97-1.6.703-3.586.703zm.44-4.377q.861 0 1.6-.616.738-.632 1.335-1.722.615-1.09 1.09-2.496.475-1.407.809-2.971.334-1.565.492-3.129.176-1.582.176-3.006 0-1.933-.545-2.83-.528-.914-1.617-.914-.897 0-1.67.686-.756.685-1.371 1.845-.616 1.16-1.09 2.602-.457 1.441-.774 2.97-.316 1.53-.474 2.954-.159 1.423-.159 2.548 0 2.004.475 3.042.492 1.037 1.723 1.037zM81.885 34l.756-3.744 8.385-7.453q1.564-1.389 2.636-2.479 1.073-1.09 1.705-1.969.65-.896.932-1.67.299-.773.299-1.511 0-1.319-.72-2.004-.722-.703-1.934-.703-.862 0-1.688.299-.809.28-1.705.879-.897.58-2.004 1.494l-2.566-3.569q1.828-1.547 3.937-2.584 2.127-1.054 4.887-1.054 2.531 0 4.13.896 1.6.897 2.356 2.338.756 1.424.756 3.041 0 2.285-.984 4.148-.985 1.846-2.69 3.534-1.705 1.687-3.885 3.463l-4.728 3.902v.176h9.984L98.795 34Zm29.514 0 1.107-5.326h-10.371l.844-4.113L116.514 8.3h5.467l-3.428 16.154h2.988l-.896 4.219h-2.989L116.55 34Zm-3.463-9.545h5.466l1.02-4.36q.193-.913.457-1.986.281-1.09.545-2.021.281-.932.44-1.354h-.194q-.387.704-1.002 1.565-.598.844-1.23 1.617z"/></g><g id="g33"><g id="g21"><g id="g9"><path id="polygon9" d="m241.06 153.92-10.65-24.63-10.39 24.02-20.78-24.02v38.89h63.12v-38.89z" style="fill:url(#linear-gradient);stroke-width:0"/><path id="path9" d="M262.35 168.18c0 17.42-14.13 31.55-31.55 31.55s-31.56-14.13-31.56-31.55h-24.08c0 30.72 24.91 55.63 55.64 55.63s55.64-24.91 55.64-55.63h-24.08z" style="fill:url(#linear-gradient-2);stroke-width:0"/></g><g id="g20"><path id="path10" d="M146.62 241.67h10.49v2.11h-7.97v6.47h7.37v2.08h-7.37v8.81h-2.51v-19.47z" class="cls-5"/><path id="path11" d="M163.2 241.67v11.52c0 4.36 1.94 6.21 4.54 6.21 2.89 0 4.74-1.91 4.74-6.21v-11.52h2.54v11.35c0 5.98-3.15 8.43-7.37 8.43-3.99 0-6.99-2.28-6.99-8.32v-11.47h2.54z" class="cls-5"/><path id="path12" d="M179.37 241.67h2.51v17.36h8.32v2.11h-10.83z" class="cls-5"/><path id="path13" d="M193.01 241.67h2.51v17.36h8.32v2.11h-10.83z" class="cls-5"/><path id="path14" d="M223.05 252.59c-.14-2.72-.32-5.98-.29-8.41h-.09c-.66 2.28-1.47 4.71-2.46 7.39l-3.44 9.45h-1.91l-3.15-9.27c-.92-2.74-1.7-5.26-2.25-7.57h-.06c-.06 2.43-.2 5.69-.38 8.61l-.52 8.35h-2.4l1.36-19.47h3.21l3.32 9.42c.81 2.4 1.47 4.53 1.96 6.56h.09c.49-1.96 1.18-4.1 2.05-6.56l3.47-9.42h3.21l1.21 19.47h-2.46l-.49-8.55z" class="cls-5"/><path id="path15" d="m232.72 255.02-2.02 6.12h-2.6l6.62-19.47h3.03l6.64 19.47h-2.68l-2.08-6.12h-6.9zm-.49-16.12c0-.81.64-1.44 1.44-1.44.8 0 1.39.64 1.39 1.44 0 .8-.55 1.47-1.41 1.47-.86 0-1.42-.67-1.42-1.47zm6.87 14.15-1.91-5.6c-.43-1.27-.72-2.43-1.01-3.55h-.06c-.29 1.16-.61 2.34-.98 3.52l-1.91 5.63h5.86zm-1.5-14.15c0-.81.61-1.44 1.42-1.44.81 0 1.39.64 1.39 1.44 0 .8-.55 1.47-1.39 1.47-.84 0-1.42-.67-1.42-1.47z" class="cls-5"/><path id="path16" d="M247.25 241.67h2.51v9.39h.09c.52-.75 1.04-1.44 1.53-2.08l5.95-7.31h3.12l-7.05 8.26 7.6 11.21h-2.97l-6.41-9.56-1.85 2.14v7.42h-2.51v-19.47z" class="cls-5"/><path id="path17" d="M267.21 243.81h-5.92v-2.14h14.41v2.14h-5.95v17.33h-2.54z" class="cls-5"/><path id="path18" d="M280.38 241.67v19.47h-2.51v-19.47z" class="cls-5"/><path id="path19" d="M299.59 260.27c-1.13.41-3.35 1.07-5.98 1.07-2.95 0-5.37-.75-7.28-2.57-1.67-1.62-2.71-4.22-2.71-7.25.03-5.8 4.02-10.05 10.54-10.05 2.25 0 4.02.49 4.85.9l-.61 2.05c-1.04-.46-2.34-.84-4.3-.84-4.74 0-7.83 2.95-7.83 7.83s2.98 7.86 7.51 7.86c1.65 0 2.77-.23 3.35-.52v-5.81h-3.96v-2.02h6.41v9.36z" class="cls-5"/><path id="path20" d="M313.51 252.01h-7.57v7.02h8.43v2.11h-10.95v-19.47h10.51v2.11h-8v6.15h7.57v2.08z" class="cls-5"/></g></g><g id="g22"><path id="polygon21" d="m241.06 153.92-10.65-24.63-10.39 24.02-20.78-24.02v38.89h63.12v-38.89z" style="fill:url(#linearGradient2);stroke-width:0"/><path id="path21" d="M262.35 168.18c0 17.42-14.13 31.55-31.55 31.55s-31.56-14.13-31.56-31.55h-24.08c0 30.72 24.91 55.63 55.64 55.63s55.64-24.91 55.64-55.63h-24.08z" style="fill:url(#linear-gradient-4);stroke-width:0"/></g><g id="g32"><path id="path22" d="M146.62 241.67h10.49v2.11h-7.97v6.47h7.37v2.08h-7.37v8.81h-2.51v-19.47z" class="cls-5"/><path id="path23" d="M163.2 241.67v11.52c0 4.36 1.94 6.21 4.54 6.21 2.89 0 4.74-1.91 4.74-6.21v-11.52h2.54v11.35c0 5.98-3.15 8.43-7.37 8.43-3.99 0-6.99-2.28-6.99-8.32v-11.47h2.54z" class="cls-5"/><path id="path24" d="M179.37 241.67h2.51v17.36h8.32v2.11h-10.83z" class="cls-5"/><path id="path25" d="M193.01 241.67h2.51v17.36h8.32v2.11h-10.83z" class="cls-5"/><path id="path26" d="M223.05 252.59c-.14-2.72-.32-5.98-.29-8.41h-.09c-.66 2.28-1.47 4.71-2.46 7.39l-3.44 9.45h-1.91l-3.15-9.27c-.92-2.74-1.7-5.26-2.25-7.57h-.06c-.06 2.43-.2 5.69-.38 8.61l-.52 8.35h-2.4l1.36-19.47h3.21l3.32 9.42c.81 2.4 1.47 4.53 1.96 6.56h.09c.49-1.96 1.18-4.1 2.05-6.56l3.47-9.42h3.21l1.21 19.47h-2.46l-.49-8.55z" class="cls-5"/><path id="path27" d="m232.72 255.02-2.02 6.12h-2.6l6.62-19.47h3.03l6.64 19.47h-2.68l-2.08-6.12h-6.9zm-.49-16.12c0-.81.64-1.44 1.44-1.44.8 0 1.39.64 1.39 1.44 0 .8-.55 1.47-1.41 1.47-.86 0-1.42-.67-1.42-1.47zm6.87 14.15-1.91-5.6c-.43-1.27-.72-2.43-1.01-3.55h-.06c-.29 1.16-.61 2.34-.98 3.52l-1.91 5.63h5.86zm-1.5-14.15c0-.81.61-1.44 1.42-1.44.81 0 1.39.64 1.39 1.44 0 .8-.55 1.47-1.39 1.47-.84 0-1.42-.67-1.42-1.47z" class="cls-5"/><path id="path28" d="M247.25 241.67h2.51v9.39h.09c.52-.75 1.04-1.44 1.53-2.08l5.95-7.31h3.12l-7.05 8.26 7.6 11.21h-2.97l-6.41-9.56-1.85 2.14v7.42h-2.51v-19.47z" class="cls-5"/><path id="path29" d="M267.21 243.81h-5.92v-2.14h14.41v2.14h-5.95v17.33h-2.54z" class="cls-5"/><path id="path30" d="M280.38 241.67v19.47h-2.51v-19.47z" class="cls-5"/><path id="path31" d="M299.59 260.27c-1.13.41-3.35 1.07-5.98 1.07-2.95 0-5.37-.75-7.28-2.57-1.67-1.62-2.71-4.22-2.71-7.25.03-5.8 4.02-10.05 10.54-10.05 2.25 0 4.02.49 4.85.9l-.61 2.05c-1.04-.46-2.34-.84-4.3-.84-4.74 0-7.83 2.95-7.83 7.83s2.98 7.86 7.51 7.86c1.65 0 2.77-.23 3.35-.52v-5.81h-3.96v-2.02h6.41v9.36z" class="cls-5"/><path id="path32" d="M313.51 252.01h-7.57v7.02h8.43v2.11h-10.95v-19.47h10.51v2.11h-8v6.15h7.57v2.08z" class="cls-5"/></g></g></svg>